<svg xmlns="http://www.w3.org/2000/svg" xmlns:xlink="http://www.w3.org/1999/xlink" width="500" zoomAndPan="magnify" viewBox="0 0 375 374.999991" height="500" preserveAspectRatio="xMidYMid meet" version="1.0"><defs><clipPath id="4bc2b1c427"><path d="M 164 37.5 L 211 37.5 L 211 84 L 164 84 Z M 164 37.5 " clip-rule="nonzero"/></clipPath><clipPath id="efe450fb8e"><path d="M 10.589844 172 L 41 172 L 41 233 L 10.589844 233 Z M 10.589844 172 " clip-rule="nonzero"/></clipPath><clipPath id="92e78d9706"><path d="M 334 172 L 364.589844 172 L 364.589844 233 L 334 233 Z M 334 172 " clip-rule="nonzero"/></clipPath><clipPath id="13548a3242"><path d="M 140.320312 217.921875 L 150.820312 217.921875 L 150.820312 228.421875 L 140.320312 228.421875 Z M 140.320312 217.921875 " clip-rule="nonzero"/></clipPath><clipPath id="f67c4dcdb8"><path d="M 224.53125 217.921875 L 235.03125 217.921875 L 235.03125 228.421875 L 224.53125 228.421875 Z M 224.53125 217.921875 " clip-rule="nonzero"/></clipPath><clipPath id="d573bd6ca6"><path d="M 182.132812 59.765625 L 192.632812 59.765625 L 192.632812 70.265625 L 182.132812 70.265625 Z M 182.132812 59.765625 " clip-rule="nonzero"/></clipPath></defs><path fill="#7ed957" d="M 136.007812 100.046875 L 238.582031 100.046875 C 266.78125 100.046875 292.40625 111.578125 310.980469 130.152344 C 329.546875 148.71875 341.078125 174.351562 341.078125 202.546875 C 341.078125 230.746094 329.546875 256.378906 310.980469 274.945312 C 292.40625 293.519531 266.78125 305.042969 238.582031 305.042969 L 227.382812 305.042969 L 170.476562 358.074219 C 165.332031 362.855469 157.285156 362.5625 152.5 357.429688 C 150.21875 354.972656 149.089844 351.863281 149.089844 348.761719 L 149.0625 348.761719 L 149.0625 305.042969 L 136.007812 305.042969 C 107.808594 305.042969 82.183594 293.519531 63.609375 274.945312 C 45.035156 256.378906 33.511719 230.746094 33.511719 202.546875 C 33.511719 174.351562 45.035156 148.71875 63.609375 130.152344 C 82.183594 111.578125 107.808594 100.046875 136.007812 100.046875 Z M 238.582031 125.546875 L 136.007812 125.546875 C 114.84375 125.546875 95.597656 134.214844 81.636719 148.179688 C 67.675781 162.132812 59.003906 181.386719 59.003906 202.546875 C 59.003906 223.710938 67.675781 242.957031 81.636719 256.917969 C 95.597656 270.878906 114.84375 279.546875 136.007812 279.546875 L 161.804688 279.546875 C 168.847656 279.546875 174.554688 285.257812 174.554688 292.300781 L 174.554688 319.492188 L 213.113281 283.554688 C 215.445312 281.089844 218.738281 279.546875 222.40625 279.546875 L 238.582031 279.546875 C 259.738281 279.546875 278.992188 270.878906 292.953125 256.917969 C 306.90625 242.957031 315.574219 223.710938 315.574219 202.546875 C 315.574219 181.386719 306.90625 162.132812 292.953125 148.179688 C 278.992188 134.214844 259.738281 125.546875 238.582031 125.546875 Z M 238.582031 125.546875 " fill-opacity="1" fill-rule="nonzero"/><path fill="#7ed957" d="M 178.628906 61.511719 L 195.960938 61.511719 L 195.960938 114.105469 L 178.628906 114.105469 Z M 178.628906 61.511719 " fill-opacity="1" fill-rule="evenodd"/><g clip-path="url(#4bc2b1c427)"><path fill="#7ed957" d="M 187.289062 37.613281 C 199.832031 37.613281 210.003906 47.78125 210.003906 60.316406 C 210.003906 72.859375 199.832031 83.03125 187.289062 83.03125 C 174.753906 83.03125 164.585938 72.859375 164.585938 60.316406 C 164.585938 47.78125 174.753906 37.613281 187.289062 37.613281 Z M 187.289062 37.613281 " fill-opacity="1" fill-rule="evenodd"/></g><g clip-path="url(#efe450fb8e)"><path fill="#7ed957" d="M 40.894531 232.851562 C 24.15625 232.851562 10.589844 219.28125 10.589844 202.546875 C 10.589844 185.816406 24.15625 172.242188 40.894531 172.242188 Z M 40.894531 232.851562 " fill-opacity="1" fill-rule="evenodd"/></g><g clip-path="url(#92e78d9706)"><path fill="#7ed957" d="M 334.117188 232.851562 C 350.847656 232.851562 364.414062 219.28125 364.414062 202.546875 C 364.414062 185.816406 350.847656 172.242188 334.117188 172.242188 Z M 334.117188 232.851562 " fill-opacity="1" fill-rule="evenodd"/></g><path fill="#7ed957" d="M 145.769531 166.277344 C 153.179688 166.277344 159.242188 172.34375 159.242188 179.75 L 159.242188 220.542969 C 159.242188 227.949219 153.179688 234.003906 145.769531 234.003906 C 138.363281 234.003906 132.296875 227.949219 132.296875 220.542969 L 132.296875 179.75 C 132.296875 172.34375 138.363281 166.277344 145.769531 166.277344 Z M 145.769531 166.277344 " fill-opacity="1" fill-rule="evenodd"/><path fill="#7ed957" d="M 228.808594 166.277344 L 228.820312 166.277344 C 236.226562 166.277344 242.292969 172.34375 242.292969 179.75 L 242.292969 220.542969 C 242.292969 227.949219 236.226562 234.003906 228.820312 234.003906 L 228.808594 234.003906 C 221.402344 234.003906 215.347656 227.949219 215.347656 220.542969 L 215.347656 179.75 C 215.347656 172.34375 221.402344 166.277344 228.808594 166.277344 Z M 228.808594 166.277344 " fill-opacity="1" fill-rule="evenodd"/><g clip-path="url(#13548a3242)"><path fill="#100d28" d="M 151.042969 223.28125 C 151.042969 223.636719 151.011719 223.984375 150.941406 224.328125 C 150.871094 224.675781 150.769531 225.007812 150.636719 225.335938 C 150.5 225.660156 150.335938 225.96875 150.140625 226.261719 C 149.945312 226.554688 149.722656 226.824219 149.472656 227.074219 C 149.226562 227.324219 148.953125 227.546875 148.660156 227.742188 C 148.367188 227.9375 148.058594 228.101562 147.734375 228.238281 C 147.410156 228.371094 147.074219 228.472656 146.730469 228.542969 C 146.382812 228.609375 146.035156 228.644531 145.683594 228.644531 C 145.332031 228.644531 144.980469 228.609375 144.636719 228.542969 C 144.292969 228.472656 143.957031 228.371094 143.628906 228.238281 C 143.304688 228.101562 142.996094 227.9375 142.703125 227.742188 C 142.410156 227.546875 142.140625 227.324219 141.890625 227.074219 C 141.640625 226.824219 141.417969 226.554688 141.222656 226.261719 C 141.027344 225.96875 140.863281 225.660156 140.730469 225.335938 C 140.59375 225.007812 140.492188 224.675781 140.421875 224.328125 C 140.355469 223.984375 140.320312 223.636719 140.320312 223.28125 C 140.320312 222.929688 140.355469 222.582031 140.421875 222.238281 C 140.492188 221.890625 140.59375 221.554688 140.730469 221.230469 C 140.863281 220.90625 141.027344 220.597656 141.222656 220.304688 C 141.417969 220.011719 141.640625 219.738281 141.890625 219.492188 C 142.140625 219.242188 142.410156 219.019531 142.703125 218.824219 C 142.996094 218.628906 143.304688 218.464844 143.628906 218.328125 C 143.957031 218.195312 144.292969 218.09375 144.636719 218.023438 C 144.980469 217.957031 145.332031 217.921875 145.683594 217.921875 C 146.035156 217.921875 146.382812 217.957031 146.730469 218.023438 C 147.074219 218.09375 147.410156 218.195312 147.734375 218.328125 C 148.058594 218.464844 148.367188 218.628906 148.660156 218.824219 C 148.953125 219.019531 149.226562 219.242188 149.472656 219.492188 C 149.722656 219.738281 149.945312 220.011719 150.140625 220.304688 C 150.335938 220.597656 150.5 220.90625 150.636719 221.230469 C 150.769531 221.554688 150.871094 221.890625 150.941406 222.238281 C 151.011719 222.582031 151.042969 222.929688 151.042969 223.28125 Z M 151.042969 223.28125 " fill-opacity="1" fill-rule="nonzero"/></g><g clip-path="url(#f67c4dcdb8)"><path fill="#100d28" d="M 235.253906 223.28125 C 235.253906 223.636719 235.21875 223.984375 235.148438 224.328125 C 235.082031 224.675781 234.980469 225.007812 234.84375 225.335938 C 234.710938 225.660156 234.542969 225.96875 234.347656 226.261719 C 234.152344 226.554688 233.929688 226.824219 233.683594 227.074219 C 233.433594 227.324219 233.164062 227.546875 232.871094 227.742188 C 232.578125 227.9375 232.269531 228.101562 231.941406 228.238281 C 231.617188 228.371094 231.28125 228.472656 230.9375 228.542969 C 230.589844 228.609375 230.242188 228.644531 229.890625 228.644531 C 229.539062 228.644531 229.191406 228.609375 228.84375 228.542969 C 228.5 228.472656 228.164062 228.371094 227.839844 228.238281 C 227.515625 228.101562 227.203125 227.9375 226.910156 227.742188 C 226.621094 227.546875 226.347656 227.324219 226.097656 227.074219 C 225.851562 226.824219 225.628906 226.554688 225.433594 226.261719 C 225.238281 225.96875 225.070312 225.660156 224.9375 225.335938 C 224.800781 225.007812 224.699219 224.675781 224.632812 224.328125 C 224.5625 223.984375 224.527344 223.636719 224.527344 223.28125 C 224.527344 222.929688 224.5625 222.582031 224.632812 222.238281 C 224.699219 221.890625 224.800781 221.554688 224.9375 221.230469 C 225.070312 220.90625 225.238281 220.597656 225.433594 220.304688 C 225.628906 220.011719 225.851562 219.738281 226.097656 219.492188 C 226.347656 219.242188 226.621094 219.019531 226.910156 218.824219 C 227.203125 218.628906 227.515625 218.464844 227.839844 218.328125 C 228.164062 218.195312 228.5 218.09375 228.84375 218.023438 C 229.191406 217.957031 229.539062 217.921875 229.890625 217.921875 C 230.242188 217.921875 230.589844 217.957031 230.9375 218.023438 C 231.28125 218.09375 231.617188 218.195312 231.941406 218.328125 C 232.269531 218.464844 232.578125 218.628906 232.871094 218.824219 C 233.164062 219.019531 233.433594 219.242188 233.683594 219.492188 C 233.929688 219.738281 234.152344 220.011719 234.347656 220.304688 C 234.542969 220.597656 234.710938 220.90625 234.84375 221.230469 C 234.980469 221.554688 235.082031 221.890625 235.148438 222.238281 C 235.21875 222.582031 235.253906 222.929688 235.253906 223.28125 Z M 235.253906 223.28125 " fill-opacity="1" fill-rule="nonzero"/></g><g clip-path="url(#d573bd6ca6)"><path fill="#000000" d="M 192.632812 65.015625 C 192.632812 65.359375 192.601562 65.703125 192.535156 66.039062 C 192.464844 66.378906 192.367188 66.707031 192.234375 67.023438 C 192.101562 67.34375 191.941406 67.644531 191.75 67.933594 C 191.558594 68.21875 191.339844 68.484375 191.097656 68.726562 C 190.851562 68.972656 190.585938 69.191406 190.300781 69.382812 C 190.015625 69.574219 189.710938 69.734375 189.394531 69.867188 C 189.074219 70 188.746094 70.097656 188.40625 70.164062 C 188.070312 70.230469 187.730469 70.265625 187.382812 70.265625 C 187.039062 70.265625 186.699219 70.230469 186.359375 70.164062 C 186.019531 70.097656 185.691406 70 185.375 69.867188 C 185.054688 69.734375 184.753906 69.574219 184.464844 69.382812 C 184.179688 69.191406 183.914062 68.972656 183.671875 68.726562 C 183.425781 68.484375 183.210938 68.21875 183.019531 67.933594 C 182.828125 67.644531 182.664062 67.34375 182.53125 67.023438 C 182.402344 66.707031 182.300781 66.378906 182.234375 66.039062 C 182.167969 65.703125 182.132812 65.359375 182.132812 65.015625 C 182.132812 64.671875 182.167969 64.328125 182.234375 63.992188 C 182.300781 63.652344 182.402344 63.324219 182.53125 63.007812 C 182.664062 62.6875 182.828125 62.386719 183.019531 62.097656 C 183.210938 61.8125 183.425781 61.546875 183.671875 61.300781 C 183.914062 61.058594 184.179688 60.839844 184.464844 60.648438 C 184.753906 60.457031 185.054688 60.296875 185.375 60.164062 C 185.691406 60.03125 186.019531 59.933594 186.359375 59.867188 C 186.699219 59.796875 187.039062 59.765625 187.382812 59.765625 C 187.730469 59.765625 188.070312 59.796875 188.40625 59.867188 C 188.746094 59.933594 189.074219 60.03125 189.394531 60.164062 C 189.710938 60.296875 190.015625 60.457031 190.300781 60.648438 C 190.585938 60.839844 190.851562 61.058594 191.097656 61.300781 C 191.339844 61.546875 191.558594 61.8125 191.75 62.097656 C 191.941406 62.386719 192.101562 62.6875 192.234375 63.007812 C 192.367188 63.324219 192.464844 63.652344 192.535156 63.992188 C 192.601562 64.328125 192.632812 64.671875 192.632812 65.015625 Z M 192.632812 65.015625 " fill-opacity="1" fill-rule="nonzero"/></g></svg>