<svg xmlns="http://www.w3.org/2000/svg" xmlns:xlink="http://www.w3.org/1999/xlink" width="500" zoomAndPan="magnify" viewBox="0 0 375 374.999991" height="500" preserveAspectRatio="xMidYMid meet" version="1.0"><defs><clipPath id="2477c743be"><path d="M 53.59375 32.59375 L 321.34375 32.59375 L 321.34375 300.34375 L 53.59375 300.34375 Z M 53.59375 32.59375 " clip-rule="nonzero"/></clipPath><clipPath id="fa86ab1d98"><path d="M 94.210938 48.210938 L 166.308594 48.210938 L 166.308594 111 L 94.210938 111 Z M 94.210938 48.210938 " clip-rule="nonzero"/></clipPath><clipPath id="b1a13857eb"><path d="M 106.710938 86.398438 C 95.535156 86.101562 95.160156 85.875 94.859375 85.425781 C 94.5625 84.976562 94.410156 84.300781 94.484375 83.773438 C 94.5625 83.25 94.785156 82.800781 95.234375 82.351562 C 95.984375 81.601562 97.484375 81.300781 98.984375 80.25 C 101.535156 78.375 105.136719 73.949219 108.660156 71.324219 C 112.335938 68.550781 116.835938 66.226562 120.8125 64.125 C 124.410156 62.175781 127.5625 60.601562 131.460938 59.101562 C 136.035156 57.375 142.109375 56.175781 146.609375 54.523438 C 150.4375 53.101562 153.886719 50.925781 156.960938 49.949219 C 159.285156 49.273438 161.761719 48.601562 163.335938 48.824219 C 164.3125 48.976562 165.0625 49.351562 165.511719 49.949219 C 165.960938 50.550781 166.109375 51.675781 165.886719 52.351562 C 165.660156 53.023438 164.984375 53.625 164.085938 54 C 162.660156 54.523438 160.261719 53.699219 157.484375 54 C 152.386719 54.523438 140.460938 55.726562 136.035156 58.425781 C 133.335938 60.074219 132.734375 63.226562 130.9375 64.800781 C 129.511719 66.074219 127.9375 66.074219 126.359375 67.5 C 123.960938 69.601562 120.886719 73.875 119.011719 77.175781 C 117.359375 80.101562 116.460938 82.273438 115.484375 85.949219 C 113.910156 91.726562 113.6875 105.898438 111.960938 109.050781 C 111.4375 110.101562 110.761719 110.476562 110.160156 110.699219 C 109.636719 110.851562 109.035156 110.851562 108.585938 110.625 C 107.984375 110.324219 107.234375 109.425781 107.011719 108.824219 C 106.859375 108.300781 106.9375 107.625 107.234375 107.175781 C 107.535156 106.574219 108.4375 105.898438 109.109375 105.75 C 109.785156 105.601562 110.910156 105.976562 111.359375 106.5 C 111.8125 107.023438 112.109375 108.148438 111.960938 108.824219 C 111.8125 109.5 111.136719 110.398438 110.460938 110.625 C 109.785156 110.851562 108.660156 110.699219 108.0625 110.324219 C 107.460938 109.949219 107.160156 109.351562 106.9375 108.226562 C 106.335938 104.550781 109.484375 89.476562 110.910156 83.851562 C 111.660156 80.773438 111.960938 79.5 113.3125 76.949219 C 115.261719 73.199219 119.6875 66.601562 122.386719 64.199219 C 123.8125 62.851562 125.011719 62.925781 126.4375 61.875 C 128.160156 60.601562 130.859375 58.273438 131.910156 56.851562 C 132.511719 56.023438 132.359375 55.125 132.886719 54.523438 C 133.410156 53.925781 133.9375 53.773438 135.136719 53.324219 C 138.660156 52.050781 152.234375 49.425781 157.484375 48.898438 C 160.261719 48.601562 162.511719 48.226562 164.011719 48.898438 C 164.984375 49.351562 165.886719 50.25 166.035156 51.074219 C 166.1875 51.898438 165.511719 53.101562 164.6875 53.773438 C 163.410156 54.75 160.636719 54.375 158.085938 55.125 C 154.484375 56.25 149.761719 59.023438 145.261719 60.601562 C 140.460938 62.324219 135.359375 62.699219 130.109375 64.949219 C 123.734375 67.648438 115.109375 72.824219 110.160156 76.425781 C 106.785156 78.898438 104.910156 81.75 102.4375 83.476562 C 100.484375 84.824219 98.085938 86.324219 96.8125 86.398438 C 96.136719 86.476562 95.609375 86.175781 95.234375 85.800781 C 94.859375 85.5 94.484375 84.898438 94.484375 84.375 C 94.484375 83.699219 94.785156 82.574219 95.6875 82.050781 C 97.5625 80.925781 105.960938 80.925781 107.835938 82.050781 C 108.734375 82.574219 109.035156 83.699219 109.035156 84.375 C 109.035156 84.898438 108.660156 85.5 108.285156 85.800781 C 107.910156 86.175781 106.710938 86.398438 106.710938 86.398438 " clip-rule="nonzero"/></clipPath><clipPath id="484c62cb70"><path d="M 107.625 77.664062 L 137.1875 77.664062 L 137.1875 108 L 107.625 108 Z M 107.625 77.664062 " clip-rule="nonzero"/></clipPath><clipPath id="e0e2e383cc"><path d="M 137.085938 88.5 C 137.160156 97.949219 136.035156 100.351562 134.609375 102.226562 C 133.1875 104.023438 131.011719 105.675781 128.910156 106.648438 C 126.8125 107.625 124.1875 108.074219 121.859375 107.925781 C 119.535156 107.773438 117.0625 106.949219 115.035156 105.75 C 113.085938 104.550781 111.136719 102.675781 109.9375 100.726562 C 108.734375 98.699219 107.984375 96.148438 107.835938 93.824219 C 107.6875 91.5 108.136719 88.875 109.109375 86.773438 C 110.085938 84.675781 111.734375 82.574219 113.535156 81.148438 C 115.335938 79.726562 117.8125 78.601562 120.0625 78.148438 C 122.386719 77.699219 125.011719 77.925781 127.261719 78.601562 C 129.511719 79.273438 133.410156 82.351562 133.410156 82.351562 " clip-rule="nonzero"/></clipPath><clipPath id="a306ae2e86"><path d="M 82.601562 44 L 187.96875 44 L 187.96875 139.585938 L 82.601562 139.585938 Z M 82.601562 44 " clip-rule="nonzero"/></clipPath><clipPath id="9e7cd46cdf"><path d="M 113.011719 81.226562 C 165.660156 42.824219 171.0625 43.875 175.109375 44.851562 C 178.035156 45.523438 180.136719 46.800781 182.085938 48.523438 C 183.960938 50.175781 185.6875 52.574219 186.585938 54.976562 C 187.484375 57.375 187.859375 60.300781 187.5625 62.851562 C 187.261719 65.398438 185.910156 68.398438 184.785156 70.199219 C 183.960938 71.550781 183.285156 72.226562 182.085938 73.199219 C 180.359375 74.550781 178.109375 76.050781 175.109375 76.875 C 170.460938 78.148438 161.835938 76.050781 156.0625 77.625 C 150.660156 79.050781 146.085938 82.050781 141.4375 85.425781 C 136.261719 89.25 129.886719 94.125 126.8125 99.824219 C 123.734375 105.449219 125.609375 113.851562 122.910156 119.476562 C 120.359375 124.800781 111.8125 133.351562 111.4375 133.050781 C 111.0625 132.824219 119.386719 119.476562 119.535156 119.550781 C 119.6875 119.625 113.3125 133.726562 110.460938 136.5 C 109.109375 137.851562 107.835938 138 106.410156 138.449219 C 105.0625 138.898438 103.859375 139.273438 102.210938 139.351562 C 99.886719 139.425781 96.359375 139.050781 93.8125 138 C 91.261719 136.949219 88.710938 135 86.984375 132.824219 C 85.261719 130.726562 83.910156 127.875 83.386719 125.175781 C 82.859375 122.476562 83.011719 119.25 83.761719 116.625 C 84.511719 114 85.636719 111.75 87.960938 109.273438 C 91.785156 105.148438 107.234375 97.648438 107.085938 96.523438 C 107.085938 96.300781 106.261719 96.449219 106.261719 96.226562 C 106.1875 95.699219 109.335938 93.75 111.0625 92.925781 C 112.785156 92.101562 114.734375 91.574219 116.609375 91.351562 C 118.484375 91.125 120.511719 91.199219 122.386719 91.574219 C 124.261719 91.949219 126.210938 92.699219 127.859375 93.675781 C 129.511719 94.648438 131.011719 95.925781 132.285156 97.351562 C 133.5625 98.773438 134.609375 100.5 135.359375 102.300781 C 136.109375 104.023438 136.484375 106.050781 136.636719 107.925781 C 136.785156 109.800781 136.5625 111.824219 136.109375 113.699219 C 135.660156 115.574219 134.761719 117.449219 133.710938 119.023438 C 132.660156 120.601562 131.234375 122.101562 129.734375 123.300781 C 128.234375 124.5 126.511719 125.476562 124.710938 126.074219 C 122.910156 126.675781 120.886719 127.050781 118.9375 127.050781 C 117.0625 127.050781 115.035156 126.75 113.234375 126.148438 C 111.4375 125.550781 109.5625 124.648438 108.0625 123.523438 C 106.484375 122.398438 105.136719 120.898438 104.011719 119.324219 C 102.960938 117.75 102.0625 115.949219 101.535156 114.148438 C 101.011719 112.351562 100.785156 110.25 100.859375 108.375 C 100.9375 106.425781 101.386719 104.476562 102.0625 102.675781 C 102.734375 100.875 103.785156 99.148438 104.984375 97.648438 C 106.1875 96.226562 107.6875 94.875 109.335938 93.898438 C 110.984375 92.925781 112.859375 92.101562 114.734375 91.648438 C 116.609375 91.199219 118.636719 91.125 120.511719 91.273438 C 122.386719 91.425781 124.410156 91.949219 126.136719 92.773438 C 127.859375 93.523438 129.511719 94.726562 130.9375 96 C 132.359375 97.273438 133.636719 98.925781 134.535156 100.574219 C 135.4375 102.226562 136.109375 104.175781 136.410156 106.050781 C 136.710938 107.925781 136.785156 109.949219 136.484375 111.824219 C 136.1875 113.699219 135.585938 115.648438 134.6875 117.375 C 133.785156 119.101562 132.660156 120.824219 131.234375 122.023438 C 129.8125 123.226562 128.3125 123.375 126.285156 124.648438 C 122.386719 127.125 114.886719 134.25 110.3125 136.648438 C 107.3125 138.226562 104.984375 139.125 102.210938 139.351562 C 99.4375 139.574219 95.984375 138.75 93.8125 138 C 92.234375 137.476562 91.261719 136.648438 90.136719 135.824219 C 89.011719 134.925781 87.960938 134.175781 86.984375 132.824219 C 85.636719 130.949219 83.984375 127.425781 83.386719 125.175781 C 82.9375 123.601562 82.859375 122.550781 83.011719 120.898438 C 83.234375 118.574219 84.0625 115.125 85.410156 112.726562 C 86.835938 110.324219 90.960938 106.351562 91.335938 106.574219 C 91.710938 106.800781 86.910156 114.523438 87.210938 114.675781 C 87.585938 114.898438 98.3125 100.050781 98.386719 100.125 C 98.460938 100.199219 90.511719 112.949219 89.609375 112.574219 C 88.710938 112.125 91.261719 102 93.0625 97.125 C 94.859375 92.25 97.484375 87.898438 100.410156 83.398438 C 103.636719 78.523438 107.6875 73.5 111.734375 69.148438 C 115.636719 64.949219 119.6875 61.125 124.035156 57.675781 C 128.3125 54.226562 132.660156 50.550781 137.535156 48.375 C 142.484375 46.199219 148.035156 45.300781 153.511719 44.625 C 159.210938 43.949219 166.484375 43.800781 171.136719 44.324219 C 174.285156 44.699219 176.609375 45.074219 178.859375 46.273438 C 181.109375 47.476562 183.359375 49.351562 184.785156 51.449219 C 186.210938 53.550781 187.1875 56.773438 187.5625 58.875 C 187.859375 60.375 187.859375 61.351562 187.5625 62.851562 C 187.1875 64.949219 185.910156 68.398438 184.785156 70.199219 C 183.960938 71.550781 183.0625 72.300781 182.085938 73.199219 C 181.109375 74.101562 180.359375 74.699219 178.859375 75.449219 C 175.9375 76.875 170.535156 77.101562 165.285156 79.800781 C 156.4375 84.449219 139.484375 100.351562 132.585938 104.625 C 129.660156 106.425781 128.3125 107.324219 125.984375 107.851562 C 123.660156 108.375 120.660156 108.074219 118.710938 107.625 C 117.285156 107.324219 116.460938 106.949219 115.261719 106.199219 C 113.609375 105.148438 111.210938 102.824219 110.011719 101.25 C 109.1875 100.125 108.734375 99.300781 108.359375 97.949219 C 107.835938 96.074219 107.535156 92.699219 107.6875 90.675781 C 107.835938 89.25 108.0625 88.351562 108.660156 87.074219 C 109.5625 85.273438 113.011719 81.226562 113.011719 81.226562 " clip-rule="nonzero"/></clipPath><clipPath id="7cafe7ddf3"><path d="M 63 42 L 300 42 L 300 265 L 63 265 Z M 63 42 " clip-rule="nonzero"/></clipPath><clipPath id="ef7419c9c1"><path d="M 108.511719 97.949219 C 135.8125 74.925781 148.484375 68.851562 155.910156 66 C 160.410156 64.273438 164.386719 63.375 167.234375 63.148438 C 168.886719 63.074219 169.710938 63.148438 171.210938 63.601562 C 173.234375 64.199219 176.3125 65.550781 178.1875 67.273438 C 180.136719 69 181.785156 71.398438 182.6875 73.800781 C 183.585938 76.199219 183.960938 79.125 183.660156 81.675781 C 183.359375 84.226562 182.011719 87.226562 180.886719 89.023438 C 180.0625 90.375 179.160156 91.125 178.1875 92.023438 C 177.210938 92.925781 176.3125 93.675781 174.960938 94.273438 C 173.011719 95.175781 167.460938 96.75 167.234375 96.226562 C 166.9375 95.476562 182.160156 85.648438 182.460938 86.023438 C 182.761719 86.398438 174.210938 95.101562 169.484375 98.175781 C 165.136719 101.023438 159.886719 101.550781 155.460938 104.25 C 150.886719 107.023438 147.285156 112.050781 142.710938 114.675781 C 138.285156 117.148438 133.335938 117.523438 128.535156 119.773438 C 123.0625 122.324219 117.585938 128.25 111.734375 129.523438 C 106.261719 130.726562 99.585938 129.824219 94.636719 127.875 C 89.910156 126 85.484375 122.476562 82.410156 118.574219 C 79.410156 114.75 76.484375 109.5 76.410156 104.851562 C 76.335938 100.199219 78.511719 93.824219 81.8125 90.675781 C 85.109375 87.523438 95.6875 85.050781 96.0625 85.800781 C 96.511719 86.625 81.210938 97.351562 80.910156 96.976562 C 80.609375 96.675781 92.609375 87.148438 92.085938 85.800781 C 91.785156 85.050781 87.4375 86.398438 87.210938 85.800781 C 86.984375 85.273438 88.785156 83.625 90.0625 82.648438 C 91.859375 81.226562 95.460938 79.425781 97.636719 78.75 C 99.210938 78.300781 100.410156 78.300781 101.835938 78.300781 C 103.261719 78.300781 104.535156 78.300781 106.109375 78.824219 C 108.285156 79.5 111.585938 81 113.609375 82.875 C 115.636719 84.675781 117.359375 87.75 118.335938 89.851562 C 119.011719 91.351562 119.3125 92.398438 119.386719 94.050781 C 119.535156 96.375 118.9375 100.273438 118.261719 102.449219 C 117.734375 104.023438 117.136719 104.625 116.234375 106.273438 C 114.4375 109.5 111.210938 115.726562 107.984375 120.226562 C 104.609375 124.949219 96.4375 134.023438 96.136719 133.800781 C 95.835938 133.574219 104.160156 119.476562 105.359375 119.925781 C 106.710938 120.449219 104.460938 134.101562 102.585938 140.398438 C 100.785156 146.398438 95.535156 151.351562 94.710938 156.976562 C 93.960938 162.375 97.484375 167.699219 97.410156 173.550781 C 97.335938 180.074219 93.4375 194.398438 93.285156 194.398438 C 93.136719 194.398438 94.636719 172.875 96.585938 172.726562 C 98.984375 172.5 105.960938 195.523438 107.6875 204.300781 C 108.886719 210.226562 107.910156 215.625 108.511719 219.601562 C 108.886719 222.226562 110.011719 224.101562 110.160156 226.050781 C 110.234375 227.625 109.9375 228.976562 109.636719 230.398438 C 109.261719 231.824219 108.8125 233.324219 108.136719 234.601562 C 107.460938 235.875 106.859375 237 105.660156 238.199219 C 104.011719 239.925781 101.085938 242.25 98.460938 243.300781 C 95.761719 244.351562 92.535156 244.648438 89.6875 244.351562 C 86.835938 244.050781 83.835938 242.925781 81.511719 241.351562 C 79.109375 239.773438 76.9375 237.300781 75.585938 234.75 C 74.234375 232.273438 74.609375 229.425781 73.410156 226.273438 C 71.6875 221.773438 66.585938 216.226562 65.386719 210.824219 C 64.1875 205.574219 64.9375 200.625 66.136719 194.25 C 67.859375 185.175781 72.886719 172.875 76.9375 161.925781 C 81.285156 150.300781 91.710938 126.375 91.5625 126.300781 C 91.484375 126.300781 89.910156 130.273438 89.761719 130.199219 C 89.609375 130.125 89.984375 127.425781 90.585938 125.851562 C 91.484375 123.601562 93.660156 120.148438 95.234375 118.351562 C 96.359375 117.074219 97.261719 116.398438 98.761719 115.648438 C 100.859375 114.523438 104.3125 113.175781 107.160156 113.023438 C 110.011719 112.875 113.609375 113.773438 115.859375 114.675781 C 117.4375 115.273438 118.484375 116.101562 119.609375 117 C 120.734375 117.898438 121.785156 118.726562 122.761719 120.148438 C 124.109375 122.101562 125.609375 124.875 126.285156 128.25 C 127.335938 133.425781 126.8125 140.398438 126.285156 148.800781 C 125.535156 162.148438 119.835938 188.699219 120.210938 200.699219 C 120.4375 207.148438 123.136719 210.226562 122.984375 215.550781 C 122.761719 221.925781 119.460938 236.175781 117.660156 236.25 C 116.085938 236.25 112.710938 221.25 113.011719 221.175781 C 113.3125 221.101562 119.6875 234.601562 119.160156 234.898438 C 118.5625 235.273438 108.285156 221.550781 108.4375 221.398438 C 108.585938 221.25 119.234375 232.726562 121.410156 235.800781 C 122.3125 237.074219 122.535156 237.449219 122.984375 238.726562 C 123.734375 240.824219 124.710938 245.023438 124.710938 247.425781 C 124.710938 249.148438 124.484375 250.199219 123.886719 251.773438 C 123.0625 254.023438 121.410156 257.398438 119.386719 259.425781 C 117.359375 261.449219 114.585938 263.175781 111.886719 264.074219 C 109.1875 264.976562 105.4375 264.976562 103.035156 264.675781 C 101.3125 264.449219 100.261719 264.148438 98.761719 263.398438 C 96.585938 262.273438 94.035156 260.699219 91.710938 258 C 88.109375 253.800781 83.535156 245.023438 81.4375 238.875 C 79.636719 233.773438 79.484375 229.050781 78.8125 224.023438 C 78.0625 218.851562 77.460938 214.425781 77.160156 208.273438 C 76.710938 199.800781 76.785156 186.300781 77.160156 177.675781 C 77.386719 171.300781 77.761719 166.425781 78.511719 161.023438 C 79.261719 155.773438 79.9375 151.574219 81.660156 145.726562 C 84.136719 137.398438 89.460938 124.199219 93.136719 116.175781 C 95.761719 110.476562 97.710938 106.351562 100.636719 101.925781 C 103.484375 97.5 106.484375 93.449219 110.386719 89.625 C 114.734375 85.351562 120.285156 82.5 125.910156 77.625 C 133.484375 71.101562 143.609375 58.425781 151.1875 53.175781 C 156.210938 49.648438 160.335938 48.074219 165.210938 46.425781 C 170.011719 44.851562 174.210938 44.101562 180.0625 43.425781 C 188.3125 42.523438 202.1875 41.625 210.359375 42.824219 C 216.210938 43.648438 220.710938 44.851562 224.910156 47.550781 C 229.261719 50.398438 231.660156 56.625 235.9375 59.699219 C 240.136719 62.699219 245.761719 62.851562 250.1875 65.773438 C 255.0625 69 259.5625 74.175781 263.609375 78.601562 C 267.511719 82.875 271.109375 87.300781 274.1875 91.875 C 277.035156 96.148438 279.359375 100.273438 281.535156 105.074219 C 284.011719 110.476562 285.734375 115.875 288.0625 122.773438 C 291.210938 132.300781 296.3125 148.050781 298.1875 157.050781 C 299.386719 162.75 300.0625 167.550781 299.984375 171.300781 C 299.910156 173.699219 299.609375 175.351562 299.011719 177.226562 C 298.410156 179.101562 297.4375 180.898438 296.234375 182.476562 C 295.035156 184.050781 293.535156 185.476562 291.886719 186.601562 C 290.234375 187.726562 288.359375 188.550781 286.484375 189.074219 C 284.609375 189.601562 282.511719 189.824219 280.5625 189.75 C 278.609375 189.675781 276.511719 189.226562 274.710938 188.476562 C 272.910156 187.726562 271.109375 186.675781 269.609375 185.398438 C 268.109375 184.125 266.761719 182.550781 265.710938 180.824219 C 264.734375 179.175781 263.984375 177.226562 263.535156 175.273438 C 263.085938 173.398438 262.9375 171.300781 263.160156 169.351562 C 263.386719 167.398438 263.984375 165.375 264.8125 163.574219 C 265.636719 161.773438 266.761719 160.050781 268.109375 158.625 C 269.460938 157.199219 271.1875 155.925781 272.910156 155.023438 C 274.636719 154.125 276.585938 153.449219 278.535156 153.148438 C 280.484375 152.851562 282.585938 152.851562 284.535156 153.148438 C 286.484375 153.449219 288.4375 154.125 290.160156 155.023438 C 291.886719 155.925781 293.609375 157.199219 294.960938 158.625 C 296.3125 160.050781 297.4375 161.773438 298.261719 163.574219 C 299.085938 165.375 299.609375 167.398438 299.835938 169.351562 C 300.0625 171.300781 299.910156 173.398438 299.535156 175.273438 C 299.160156 177.226562 298.335938 179.175781 297.359375 180.824219 C 296.3125 182.550781 294.960938 184.125 293.460938 185.398438 C 291.960938 186.675781 290.160156 187.726562 288.359375 188.476562 C 286.5625 189.226562 284.460938 189.675781 282.511719 189.75 C 280.5625 189.824219 278.460938 189.601562 276.585938 189.074219 C 274.710938 188.550781 272.835938 187.726562 271.1875 186.601562 C 269.535156 185.476562 268.035156 184.050781 266.835938 182.476562 C 265.636719 180.898438 264.660156 179.101562 264.0625 177.226562 C 263.460938 175.351562 262.484375 171.976562 263.085938 171.300781 C 263.460938 170.925781 264.886719 172.050781 265.261719 171.601562 C 266.3125 170.398438 262.785156 162.074219 260.835938 156.148438 C 258.0625 147.75 252.4375 134.625 249.4375 126.074219 C 247.261719 119.773438 247.035156 114.375 244.1875 109.648438 C 241.335938 105 236.6875 101.398438 232.410156 97.800781 C 228.136719 94.199219 224.3125 91.5 218.6875 88.199219 C 210.8125 83.550781 197.234375 73.351562 188.835938 73.726562 C 182.460938 73.949219 178.261719 79.199219 172.410156 83.398438 C 164.609375 88.949219 153.960938 99.601562 146.835938 105.148438 C 142.035156 108.898438 137.535156 110.101562 134.234375 114 C 130.710938 118.125 129.0625 124.351562 126.734375 129.675781 C 124.410156 135 122.234375 140.324219 120.359375 145.875 C 118.410156 151.5 116.3125 156.601562 115.261719 163.273438 C 113.835938 172.050781 115.1875 185.773438 114.210938 194.25 C 113.535156 200.25 110.984375 204.300781 111.210938 209.398438 C 111.4375 214.648438 113.609375 220.199219 115.636719 225.148438 C 117.585938 229.949219 121.5625 235.425781 122.984375 238.726562 C 123.734375 240.449219 124.035156 241.5 124.335938 242.925781 C 124.636719 244.351562 124.785156 245.925781 124.710938 247.425781 C 124.636719 248.925781 124.484375 250.199219 123.886719 251.773438 C 123.0625 254.023438 121.410156 257.398438 119.386719 259.425781 C 117.359375 261.449219 114.585938 263.175781 111.886719 264.074219 C 109.1875 264.976562 105.4375 264.976562 103.035156 264.675781 C 101.3125 264.449219 100.261719 264.148438 98.761719 263.398438 C 96.585938 262.273438 93.359375 259.800781 91.710938 258 C 90.585938 256.726562 89.234375 254.25 89.386719 254.175781 C 89.535156 254.023438 93.585938 259.050781 93.886719 258.824219 C 94.335938 258.523438 84.585938 244.425781 85.335938 243.824219 C 86.160156 243.148438 101.3125 257.398438 100.9375 257.851562 C 100.636719 258.300781 86.984375 249.523438 87.0625 249.375 C 87.136719 249.226562 101.160156 257.25 101.386719 256.875 C 101.609375 256.5 89.910156 251.175781 86.761719 246.300781 C 83.386719 241.125 82.484375 232.648438 82.484375 226.273438 C 82.484375 220.5 85.484375 215.175781 86.085938 209.773438 C 86.609375 204.675781 85.859375 201.523438 86.085938 194.699219 C 86.535156 180.074219 86.984375 137.023438 90.585938 125.851562 C 91.859375 121.875 93.660156 120.148438 95.234375 118.351562 C 96.359375 117.074219 97.261719 116.398438 98.761719 115.648438 C 100.859375 114.523438 104.3125 113.175781 107.160156 113.023438 C 110.011719 112.875 113.609375 113.773438 115.859375 114.675781 C 117.4375 115.273438 118.484375 116.101562 119.609375 117 C 120.734375 117.898438 121.785156 118.726562 122.761719 120.148438 C 124.109375 122.101562 125.761719 125.925781 126.285156 128.25 C 126.660156 129.898438 126.734375 130.949219 126.511719 132.675781 C 126.210938 135.148438 125.085938 138.148438 123.8125 141.523438 C 122.085938 146.175781 119.3125 150.675781 116.609375 157.648438 C 112.035156 169.574219 103.410156 207.675781 100.410156 207.449219 C 98.761719 207.375 97.261719 192.675781 97.5625 192.601562 C 97.859375 192.523438 101.160156 206.175781 103.410156 212.023438 C 105.4375 217.199219 109.5625 222.675781 110.160156 226.050781 C 110.460938 227.851562 109.9375 228.976562 109.636719 230.398438 C 109.261719 231.824219 108.8125 233.324219 108.136719 234.601562 C 107.460938 235.875 106.859375 237 105.660156 238.199219 C 104.011719 239.925781 100.636719 242.324219 98.460938 243.300781 C 96.886719 243.976562 95.835938 244.273438 94.109375 244.351562 C 91.710938 244.5 88.035156 244.351562 85.410156 243.375 C 82.710938 242.398438 80.011719 240.523438 78.136719 238.425781 C 76.261719 236.324219 74.761719 232.875 74.011719 230.625 C 73.484375 229.050781 73.109375 226.425781 73.410156 226.273438 C 73.859375 226.125 77.234375 234.074219 77.984375 233.851562 C 79.261719 233.398438 77.835938 217.125 75.734375 210 C 73.859375 203.625 68.6875 198.976562 66.660156 192.824219 C 64.5625 186.523438 63.886719 180 63.660156 172.5 C 63.4375 163.351562 65.386719 150.300781 66.585938 141.898438 C 67.410156 135.976562 68.609375 131.925781 69.359375 126.898438 C 70.109375 121.875 68.835938 116.101562 70.9375 111.824219 C 73.035156 107.398438 79.484375 105.226562 82.1875 100.875 C 84.886719 96.523438 84.8125 89.398438 87.210938 85.800781 C 88.9375 83.175781 91.636719 81.449219 93.585938 80.25 C 95.011719 79.425781 95.984375 79.050781 97.636719 78.75 C 99.886719 78.375 103.484375 78.148438 106.109375 78.824219 C 108.8125 79.5 111.585938 81 113.609375 82.875 C 115.636719 84.675781 117.359375 87.75 118.335938 89.851562 C 119.011719 91.351562 119.3125 92.398438 119.386719 94.050781 C 119.535156 96.375 118.9375 100.273438 118.261719 102.449219 C 117.734375 104.023438 116.234375 106.273438 116.234375 106.273438 C 116.234375 106.273438 117.660156 103.800781 117.4375 103.648438 C 116.910156 103.273438 107.761719 115.574219 105.886719 114.675781 C 103.636719 113.625 103.9375 98.023438 107.085938 93.226562 C 109.785156 89.023438 116.535156 87.976562 121.484375 85.949219 C 126.4375 83.925781 136.035156 80.023438 136.710938 81.074219 C 137.386719 82.199219 125.609375 92.925781 125.234375 92.625 C 124.859375 92.324219 130.710938 81.148438 135.210938 78 C 139.636719 74.925781 146.535156 76.273438 151.785156 73.875 C 157.261719 71.398438 163.636719 64.050781 167.234375 63.148438 C 168.886719 62.699219 169.710938 63.148438 171.210938 63.601562 C 173.234375 64.199219 176.3125 65.550781 178.1875 67.273438 C 180.136719 69 181.785156 71.398438 182.6875 73.800781 C 183.585938 76.199219 183.960938 79.125 183.660156 81.675781 C 183.359375 84.226562 182.3125 86.925781 180.886719 89.023438 C 179.460938 91.125 177.210938 93.074219 174.960938 94.273438 C 172.710938 95.476562 167.460938 96.675781 167.234375 96.226562 C 167.011719 95.625 176.386719 90.074219 176.234375 89.851562 C 176.011719 89.550781 166.5625 95.25 161.535156 97.273438 C 156.511719 99.300781 150.4375 99.148438 146.085938 102 C 141.660156 104.925781 138.734375 111.074219 135.136719 114.675781 C 132.210938 117.601562 128.761719 120.75 126.4375 122.175781 C 125.085938 123 124.1875 123.226562 122.984375 123.601562 C 121.785156 123.898438 120.8125 124.199219 119.386719 124.199219 C 117.4375 124.125 114.0625 123.375 112.261719 122.625 C 110.984375 122.101562 110.234375 121.648438 109.1875 120.675781 C 107.761719 119.324219 105.8125 116.625 104.910156 114.824219 C 104.3125 113.550781 104.011719 112.726562 103.859375 111.300781 C 103.636719 109.351562 103.785156 106.273438 104.535156 104.023438 C 105.285156 101.773438 108.511719 97.949219 108.511719 97.949219 " clip-rule="nonzero"/></clipPath><clipPath id="c7bb800918"><path d="M 157.449219 68 L 277 68 L 277 133.339844 L 157.449219 133.339844 Z M 157.449219 68 " clip-rule="nonzero"/></clipPath><clipPath id="9302377ce3"><path d="M 173.085938 68.324219 C 200.910156 68.101562 205.335938 68.625 210.359375 69.75 C 215.6875 70.949219 221.234375 72.824219 226.484375 74.925781 C 231.8125 77.101562 237.210938 80.023438 242.160156 82.574219 C 246.8125 84.976562 251.160156 87 255.359375 89.773438 C 259.710938 92.625 264.4375 96.148438 267.960938 99.675781 C 271.035156 102.75 274.109375 106.425781 275.535156 109.273438 C 276.511719 111.226562 276.734375 112.800781 276.886719 114.601562 C 277.035156 116.398438 276.960938 118.351562 276.511719 120.148438 C 276.0625 121.875 275.3125 123.675781 274.335938 125.175781 C 273.359375 126.675781 272.085938 128.175781 270.660156 129.300781 C 269.234375 130.425781 267.585938 131.476562 265.859375 132.074219 C 264.136719 132.75 262.1875 133.050781 260.386719 133.125 C 258.585938 133.199219 256.636719 132.898438 254.910156 132.375 C 253.1875 131.851562 251.460938 130.949219 249.960938 129.898438 C 248.460938 128.851562 247.109375 127.5 246.0625 126.074219 C 245.011719 124.574219 244.109375 122.851562 243.585938 121.125 C 243.0625 119.398438 242.761719 117.449219 242.835938 115.648438 C 242.910156 113.851562 243.285156 111.898438 243.886719 110.175781 C 244.484375 108.449219 245.460938 106.800781 246.585938 105.375 C 247.710938 103.949219 249.136719 102.675781 250.636719 101.699219 C 252.136719 100.726562 253.9375 99.898438 255.734375 99.449219 C 257.460938 99 259.410156 98.851562 261.210938 99 C 263.011719 99.148438 264.960938 99.601562 266.609375 100.351562 C 268.261719 101.023438 269.910156 102.074219 271.261719 103.273438 C 272.609375 104.476562 273.8125 106.050781 274.710938 107.625 C 275.609375 109.199219 276.285156 111 276.660156 112.800781 C 277.035156 114.601562 277.035156 116.476562 276.8125 118.273438 C 276.585938 120.074219 276.0625 121.949219 275.234375 123.601562 C 274.410156 125.25 273.285156 126.824219 272.011719 128.101562 C 270.734375 129.375 269.160156 130.5 267.511719 131.324219 C 265.859375 132.148438 264.0625 132.75 262.261719 132.976562 C 260.460938 133.199219 258.511719 133.199219 256.710938 132.824219 C 254.910156 132.449219 253.109375 131.851562 251.535156 130.949219 C 249.960938 130.050781 248.609375 129.074219 247.1875 127.5 C 245.234375 125.398438 244.710938 121.648438 241.5625 118.800781 C 235.9375 113.699219 221.085938 107.023438 212.535156 103.726562 C 206.234375 101.324219 201.585938 100.125 195.4375 99.226562 C 188.535156 98.25 178.410156 99.375 173.085938 98.699219 C 170.011719 98.324219 168.136719 98.101562 166.035156 96.976562 C 163.9375 95.925781 161.835938 93.75 160.636719 92.175781 C 159.734375 91.050781 159.359375 90.300781 158.910156 88.949219 C 158.3125 87.074219 157.859375 83.625 158.011719 81.675781 C 158.085938 80.25 158.3125 79.425781 158.910156 78.148438 C 159.734375 76.351562 161.609375 73.574219 163.035156 72.148438 C 164.011719 71.175781 164.761719 70.648438 166.035156 70.050781 C 167.835938 69.226562 173.085938 68.324219 173.085938 68.324219 " clip-rule="nonzero"/></clipPath><clipPath id="7c1a391067"><path d="M 200 49 L 312.613281 49 L 312.613281 211 L 200 211 Z M 200 49 " clip-rule="nonzero"/></clipPath><clipPath id="430febb2b8"><path d="M 219.285156 49.574219 C 227.386719 51.300781 234.136719 49.726562 239.085938 51.148438 C 244.5625 52.726562 249.660156 56.398438 254.984375 60.75 C 261.8125 66.375 270.136719 76.949219 275.535156 83.476562 C 279.4375 88.199219 282.210938 91.5 284.984375 96 C 287.835938 100.648438 290.609375 105.976562 292.410156 111.074219 C 294.136719 115.875 295.484375 122.398438 295.636719 125.773438 C 295.710938 127.574219 295.636719 128.398438 295.1875 129.898438 C 294.511719 132 293.085938 135.148438 291.359375 137.101562 C 289.5625 139.125 287.085938 140.851562 284.609375 141.824219 C 282.136719 142.800781 279.0625 143.101562 276.4375 142.800781 C 273.8125 142.5 270.960938 141.375 268.785156 139.875 C 266.609375 138.375 264.585938 136.050781 263.386719 133.726562 C 262.109375 131.398438 260.984375 125.925781 261.359375 125.773438 C 261.886719 125.550781 269.761719 139.648438 269.160156 140.101562 C 268.5625 140.550781 261.210938 132.675781 257.6875 128.25 C 254.011719 123.601562 250.5625 117.75 247.710938 112.648438 C 245.085938 108 241.785156 104.476562 240.960938 99 C 239.835938 91.648438 240.734375 76.5 245.460938 71.925781 C 249.285156 68.175781 257.761719 68.773438 263.386719 69.523438 C 268.785156 70.199219 273.660156 72.226562 278.6875 75.75 C 285.511719 80.550781 294.585938 91.351562 298.785156 98.398438 C 301.785156 103.425781 302.3125 106.5 303.886719 112.726562 C 306.734375 123.75 310.5625 148.273438 311.609375 159.75 C 312.210938 166.351562 312.359375 169.949219 311.910156 175.425781 C 311.460938 181.574219 311.6875 189.148438 308.535156 194.699219 C 305.160156 200.625 297.660156 207.824219 291.511719 209.550781 C 286.109375 211.050781 279.210938 209.101562 274.1875 206.398438 C 268.9375 203.625 263.835938 197.699219 260.910156 192.675781 C 258.285156 188.175781 257.386719 183.074219 256.5625 178.125 C 255.734375 173.101562 255.8125 167.324219 255.960938 162.601562 C 256.035156 158.550781 256.035156 154.351562 256.9375 151.351562 C 257.535156 149.175781 258.511719 147.675781 259.710938 146.101562 C 260.910156 144.523438 262.410156 143.101562 263.984375 142.050781 C 265.636719 140.925781 267.511719 140.101562 269.386719 139.574219 C 271.261719 139.050781 273.359375 138.824219 275.3125 138.898438 C 277.261719 138.976562 279.359375 139.425781 281.160156 140.175781 C 282.960938 140.925781 284.761719 141.976562 286.261719 143.25 C 287.761719 144.523438 289.109375 146.101562 290.085938 147.75 C 291.0625 149.398438 291.8125 151.351562 292.261719 153.300781 C 292.710938 155.175781 292.859375 157.273438 292.636719 159.226562 C 292.410156 161.175781 291.8125 163.199219 290.984375 165 C 290.160156 166.800781 289.035156 168.449219 287.6875 169.875 C 286.335938 171.300781 284.6875 172.574219 282.960938 173.476562 C 281.234375 174.375 279.285156 175.125 277.335938 175.425781 C 275.386719 175.726562 273.285156 175.726562 271.335938 175.425781 C 269.386719 175.125 267.4375 174.375 265.710938 173.476562 C 263.984375 172.574219 262.335938 171.300781 260.984375 169.875 C 259.636719 168.449219 258.511719 166.800781 257.6875 165 C 256.859375 163.199219 256.261719 161.175781 256.035156 159.226562 C 255.8125 157.273438 255.960938 155.175781 256.410156 153.300781 C 256.859375 151.351562 257.609375 149.398438 258.585938 147.75 C 259.5625 146.101562 260.910156 144.523438 262.410156 143.25 C 263.910156 141.976562 265.710938 140.925781 267.511719 140.175781 C 269.3125 139.425781 271.410156 138.976562 273.359375 138.898438 C 275.3125 138.824219 277.410156 139.050781 279.285156 139.574219 C 281.160156 140.101562 283.035156 140.925781 284.6875 142.050781 C 286.261719 143.101562 287.761719 144.523438 288.960938 146.101562 C 290.160156 147.675781 290.984375 148.875 291.734375 151.425781 C 293.234375 156.523438 297.359375 172.949219 293.984375 175.800781 C 290.984375 178.351562 278.3125 174.75 275.460938 171 C 272.835938 167.625 276.210938 161.773438 275.6875 155.476562 C 274.859375 145.273438 272.835938 125.25 268.636719 116.023438 C 265.9375 110.101562 262.410156 106.648438 258.285156 103.050781 C 254.160156 99.449219 243.359375 95.625 243.734375 94.5 C 244.109375 93.300781 257.6875 98.925781 262.261719 96.601562 C 266.6875 94.351562 268.1875 81.074219 270.960938 81.148438 C 273.8125 81.226562 275.835938 91.726562 279.210938 97.949219 C 283.636719 106.125 294.660156 119.175781 295.636719 125.773438 C 296.160156 129.074219 294.886719 131.398438 293.6875 133.726562 C 292.484375 136.050781 290.011719 138.523438 288.285156 139.875 C 287.011719 140.851562 285.886719 141.300781 284.609375 141.824219 C 283.335938 142.273438 282.210938 142.726562 280.636719 142.800781 C 278.386719 142.949219 274.9375 142.800781 272.460938 141.824219 C 269.984375 140.851562 267.4375 139.125 265.710938 137.175781 C 263.910156 135.148438 262.710938 132.300781 261.886719 129.898438 C 261.136719 127.726562 261.511719 126 260.6875 123.449219 C 259.261719 119.101562 255.585938 111.898438 252.660156 106.875 C 250.035156 102.300781 247.636719 98.25 244.1875 94.351562 C 240.359375 90.074219 235.710938 85.125 230.3125 82.5 C 224.6875 79.800781 215.535156 80.476562 210.960938 78.75 C 208.1875 77.699219 206.234375 76.425781 204.734375 75.148438 C 203.6875 74.25 203.085938 73.351562 202.410156 72.300781 C 201.734375 71.25 201.210938 70.351562 200.835938 69 C 200.3125 67.125 199.785156 64.125 200.160156 61.800781 C 200.535156 59.476562 201.886719 56.773438 203.011719 55.125 C 203.761719 53.925781 204.4375 53.324219 205.5625 52.5 C 207.136719 51.375 209.761719 49.800781 212.085938 49.351562 C 214.335938 48.898438 219.285156 49.648438 219.285156 49.648438 " clip-rule="nonzero"/></clipPath><clipPath id="5402cffc16"><path d="M 220.574219 175 L 280.816406 175 L 280.816406 281 L 220.574219 281 Z M 220.574219 175 " clip-rule="nonzero"/></clipPath><clipPath id="f940e3e181"><path d="M 280.636719 192 C 277.410156 222.824219 276.660156 230.175781 274.484375 236.324219 C 272.535156 241.875 269.609375 246.449219 266.535156 251.25 C 263.3125 256.273438 257.386719 264.675781 255.585938 265.726562 C 255.136719 265.949219 254.910156 265.648438 254.609375 265.875 C 253.9375 266.476562 253.859375 269.476562 253.109375 271.125 C 252.359375 272.699219 251.234375 274.273438 249.960938 275.550781 C 248.6875 276.824219 247.1875 278.023438 245.609375 278.851562 C 244.035156 279.675781 242.160156 280.273438 240.359375 280.574219 C 238.5625 280.875 236.6875 280.800781 234.960938 280.5 C 233.160156 280.199219 231.359375 279.523438 229.785156 278.699219 C 228.210938 277.800781 226.636719 276.675781 225.4375 275.324219 C 224.234375 273.976562 223.1875 272.398438 222.4375 270.75 C 221.6875 269.101562 221.160156 267.300781 221.011719 265.5 C 220.859375 263.699219 220.9375 261.75 221.386719 260.023438 C 221.835938 258.300781 222.511719 256.5 223.484375 255 C 224.386719 253.5 225.660156 252 227.011719 250.875 C 228.359375 249.75 230.085938 248.773438 231.734375 248.101562 C 233.386719 247.425781 235.261719 247.050781 237.0625 246.976562 C 238.859375 246.898438 240.8125 247.050781 242.535156 247.574219 C 244.261719 248.101562 245.984375 248.925781 247.484375 249.976562 C 248.984375 251.023438 250.335938 252.300781 251.386719 253.726562 C 252.4375 255.148438 253.335938 256.875 253.859375 258.601562 C 254.460938 260.324219 254.761719 262.199219 254.761719 264 C 254.761719 265.800781 254.386719 267.675781 253.785156 269.398438 C 253.1875 271.125 252.285156 272.773438 251.160156 274.199219 C 250.035156 275.625 248.6875 276.976562 247.1875 277.949219 C 245.6875 278.925781 243.886719 279.75 242.160156 280.199219 C 240.4375 280.648438 238.5625 280.875 236.761719 280.726562 C 234.960938 280.574219 233.085938 280.125 231.4375 279.449219 C 229.785156 278.773438 228.136719 277.800781 226.785156 276.601562 C 225.4375 275.398438 224.160156 273.976562 223.261719 272.398438 C 222.359375 270.824219 221.6875 269.023438 221.3125 267.300781 C 220.9375 265.5 220.785156 263.773438 221.085938 261.824219 C 221.460938 259.5 222.0625 256.949219 223.636719 254.476562 C 225.886719 250.949219 231.511719 247.648438 234.8125 243.675781 C 238.109375 239.699219 241.109375 235.574219 243.285156 230.625 C 245.6875 225.148438 246.960938 218.699219 248.160156 212.101562 C 249.4375 204.75 249.0625 194.023438 250.335938 188.550781 C 251.011719 185.550781 251.835938 183.449219 252.886719 181.726562 C 253.636719 180.523438 254.234375 179.851562 255.359375 178.949219 C 256.9375 177.75 259.859375 176.101562 261.734375 175.5 C 263.085938 175.050781 263.984375 174.976562 265.410156 175.050781 C 267.359375 175.199219 270.359375 175.726562 272.460938 176.773438 C 274.5625 177.898438 276.734375 180 277.9375 181.574219 C 278.835938 182.699219 279.210938 183.449219 279.660156 184.800781 C 280.261719 186.675781 280.636719 192 280.636719 192 " clip-rule="nonzero"/></clipPath><clipPath id="a2a658dcdb"><path d="M 183.375 234 L 212.9375 234 L 212.9375 264.359375 L 183.375 264.359375 Z M 183.375 234 " clip-rule="nonzero"/></clipPath><clipPath id="f182bc6e53"><path d="M 212.910156 244.726562 C 212.835938 254.175781 211.785156 256.648438 210.359375 258.449219 C 208.9375 260.25 206.835938 261.898438 204.734375 262.875 C 202.636719 263.851562 200.011719 264.300781 197.6875 264.148438 C 195.359375 264 192.8125 263.25 190.785156 262.050781 C 188.835938 260.851562 186.960938 258.898438 185.761719 256.949219 C 184.5625 254.925781 183.734375 252.449219 183.585938 250.125 C 183.4375 247.800781 183.886719 245.101562 184.859375 243 C 185.835938 240.898438 187.484375 238.800781 189.285156 237.375 C 191.160156 235.949219 193.5625 234.824219 195.886719 234.449219 C 198.136719 234.074219 200.835938 234.226562 203.011719 234.898438 C 205.261719 235.574219 209.160156 238.574219 209.160156 238.574219 " clip-rule="nonzero"/></clipPath><clipPath id="9068c98029"><path d="M 176.417969 183.453125 L 307 183.453125 L 307 293.917969 L 176.417969 293.917969 Z M 176.417969 183.453125 " clip-rule="nonzero"/></clipPath><clipPath id="d807c2bed7"><path d="M 197.535156 264.226562 C 185.910156 261.898438 183.4375 260.476562 181.859375 259.273438 C 180.734375 258.449219 180.210938 257.773438 179.460938 256.574219 C 178.410156 254.851562 177.136719 252.074219 176.835938 249.675781 C 176.535156 247.351562 177.136719 244.273438 177.734375 242.398438 C 178.1875 241.050781 178.5625 240.300781 179.460938 239.175781 C 180.660156 237.601562 182.835938 235.425781 184.9375 234.300781 C 187.035156 233.175781 189.4375 232.199219 192.0625 232.574219 C 195.8125 233.175781 201.960938 236.699219 204.960938 240.375 C 207.960938 244.050781 209.234375 249.675781 210.136719 254.550781 C 211.035156 259.425781 211.9375 264.675781 210.585938 269.550781 C 209.085938 274.949219 202.035156 280.875 200.386719 285.226562 C 199.410156 287.925781 200.761719 290.851562 199.410156 292.273438 C 197.984375 293.773438 194.3125 293.773438 191.835938 293.625 C 189.359375 293.476562 186.585938 292.574219 184.484375 291.300781 C 182.3125 289.949219 180.285156 287.925781 179.011719 285.75 C 177.734375 283.574219 176.910156 280.875 176.761719 278.398438 C 176.609375 275.925781 177.511719 272.699219 178.261719 270.75 C 178.785156 269.324219 179.3125 268.574219 180.285156 267.449219 C 181.710938 265.875 183.660156 264.074219 186.359375 262.726562 C 190.261719 260.699219 197.085938 259.726562 202.1875 257.925781 C 207.0625 256.199219 212.085938 254.101562 216.285156 252.148438 C 219.734375 250.5 222.886719 248.925781 225.585938 247.125 C 227.984375 245.550781 230.011719 243.074219 231.960938 242.023438 C 233.3125 241.273438 234.285156 240.976562 235.859375 240.75 C 238.035156 240.449219 241.484375 240.449219 244.035156 241.199219 C 246.585938 241.949219 249.136719 243.523438 251.011719 245.398438 C 252.886719 247.273438 254.460938 250.199219 255.285156 252.300781 C 255.886719 253.800781 255.960938 255 256.035156 256.351562 C 256.109375 257.699219 256.1875 258.976562 255.8125 260.476562 C 255.285156 262.648438 254.910156 266.101562 252.511719 267.898438 C 248.460938 270.976562 235.1875 268.125 229.335938 271.273438 C 224.535156 273.898438 223.261719 281.625 218.835938 283.351562 C 214.410156 285.074219 206.910156 284.101562 202.785156 281.476562 C 198.511719 278.851562 194.984375 272.398438 193.785156 267.300781 C 192.585938 262.351562 193.859375 256.425781 195.210938 251.324219 C 196.5625 246.226562 198.285156 239.851562 201.960938 236.773438 C 205.484375 233.773438 212.3125 235.199219 216.511719 232.726562 C 220.710938 230.25 223.1875 225.226562 227.160156 222.074219 C 231.285156 218.773438 236.609375 216.523438 240.960938 213.523438 C 245.160156 210.601562 248.011719 207.75 253.035156 204.449219 C 260.460938 199.574219 282.210938 188.398438 281.984375 188.023438 C 281.910156 187.800781 274.109375 191.851562 273.886719 191.476562 C 273.660156 191.101562 278.386719 186.898438 280.410156 185.699219 C 281.835938 184.875 282.886719 184.5 284.535156 184.199219 C 286.859375 183.824219 290.835938 183.824219 293.160156 184.273438 C 294.8125 184.574219 295.859375 184.949219 297.285156 185.851562 C 299.3125 187.050781 302.3125 189.75 303.734375 191.625 C 304.785156 192.976562 305.234375 193.949219 305.761719 195.523438 C 306.4375 197.773438 306.886719 201.75 306.734375 204.148438 C 306.585938 205.800781 306.285156 206.550781 305.609375 208.425781 C 304.109375 212.699219 299.910156 222.601562 296.609375 228.375 C 293.835938 233.25 290.910156 237.148438 287.761719 241.199219 C 284.6875 245.25 281.460938 248.773438 277.859375 252.75 C 273.886719 257.175781 269.3125 262.199219 264.8125 266.476562 C 260.386719 270.675781 254.910156 276.300781 251.085938 278.101562 C 248.910156 279.148438 247.1875 279.074219 245.234375 279.074219 C 243.285156 279.074219 241.261719 278.699219 239.386719 278.101562 C 237.511719 277.5 235.710938 276.523438 234.136719 275.324219 C 232.5625 274.125 231.210938 272.625 230.085938 270.976562 C 228.960938 269.324219 228.0625 267.449219 227.535156 265.574219 C 227.011719 263.699219 226.859375 261.675781 226.9375 259.726562 C 227.011719 257.773438 227.460938 255.675781 228.210938 253.875 C 228.960938 252.074219 230.011719 250.273438 231.285156 248.773438 C 232.5625 247.273438 234.210938 245.925781 235.859375 244.949219 C 237.511719 243.976562 239.460938 243.226562 241.335938 242.773438 C 243.210938 242.324219 245.3125 242.25 247.261719 242.476562 C 249.210938 242.699219 251.160156 243.226562 252.960938 244.050781 C 254.761719 244.875 256.484375 246.074219 257.910156 247.425781 C 259.335938 248.773438 260.609375 250.425781 261.511719 252.148438 C 262.410156 253.875 263.085938 255.824219 263.386719 257.773438 C 263.6875 259.726562 263.6875 261.75 263.386719 263.699219 C 263.085938 265.648438 262.335938 267.601562 261.4375 269.324219 C 260.535156 271.050781 259.261719 272.699219 257.835938 274.050781 C 256.410156 275.398438 254.761719 276.601562 252.960938 277.425781 C 251.160156 278.25 249.136719 278.773438 247.1875 279 C 245.234375 279.226562 243.136719 279.074219 241.261719 278.625 C 239.386719 278.175781 237.4375 277.425781 235.785156 276.449219 C 234.136719 275.398438 232.484375 274.050781 231.210938 272.550781 C 229.9375 271.050781 228.960938 269.25 228.210938 267.449219 C 227.535156 265.648438 227.011719 263.625 226.9375 261.675781 C 226.859375 259.726562 227.085938 257.625 227.609375 255.75 C 228.136719 253.875 228.960938 252 230.085938 250.425781 C 231.210938 248.773438 232.636719 247.273438 234.210938 246.074219 C 235.785156 244.875 239.160156 244.125 239.460938 243.300781 C 239.609375 242.925781 238.9375 242.699219 239.011719 242.25 C 239.386719 240.523438 246.4375 236.398438 250.335938 231.824219 C 255.886719 225.300781 263.6875 213.375 267.8125 205.800781 C 270.660156 200.476562 272.011719 194.476562 273.886719 191.476562 C 274.859375 189.898438 275.460938 189.226562 276.8125 188.175781 C 278.6875 186.75 281.835938 184.875 284.535156 184.199219 C 287.234375 183.523438 290.835938 183.824219 293.160156 184.273438 C 294.8125 184.574219 295.859375 184.949219 297.285156 185.851562 C 299.3125 187.050781 302.3125 189.75 303.734375 191.625 C 304.785156 192.976562 305.234375 193.949219 305.761719 195.523438 C 306.4375 197.773438 307.109375 201.375 306.734375 204.148438 C 306.359375 206.925781 305.609375 209.398438 303.585938 212.25 C 300.210938 216.898438 291.511719 223.273438 285.585938 227.324219 C 280.5625 230.773438 276.285156 232.273438 270.660156 235.574219 C 262.9375 240.074219 251.234375 247.273438 243.660156 252.375 C 237.886719 256.273438 233.835938 260.625 228.660156 263.25 C 223.9375 265.648438 214.5625 268.726562 214.035156 267.824219 C 213.511719 266.925781 226.484375 260.699219 226.335938 257.476562 C 226.1875 254.25 212.984375 251.023438 213.285156 248.398438 C 213.585938 245.625 223.636719 242.398438 229.335938 241.5 C 235.1875 240.601562 248.011719 242.324219 248.011719 243.226562 C 248.085938 244.199219 226.1875 248.398438 225.585938 247.125 C 225.210938 246.375 230.011719 243.074219 231.960938 242.023438 C 233.3125 241.273438 234.285156 240.976562 235.859375 240.75 C 238.035156 240.449219 241.484375 240.449219 244.035156 241.199219 C 246.585938 241.949219 249.136719 243.523438 251.011719 245.398438 C 252.886719 247.273438 254.460938 249.824219 255.285156 252.300781 C 256.109375 254.851562 256.261719 257.851562 255.8125 260.476562 C 255.359375 263.101562 254.160156 265.574219 252.511719 267.898438 C 250.636719 270.523438 248.011719 272.773438 244.859375 275.023438 C 240.8125 277.875 234.886719 280.5 229.785156 282.75 C 224.910156 284.925781 220.261719 286.5 214.9375 288.226562 C 208.9375 290.101562 200.6875 292.949219 195.660156 293.398438 C 192.585938 293.699219 190.035156 293.398438 188.011719 292.875 C 186.585938 292.5 185.6875 292.125 184.484375 291.300781 C 182.761719 290.101562 180.285156 287.925781 179.011719 285.75 C 177.734375 283.574219 176.984375 280.5 176.761719 278.398438 C 176.609375 276.898438 176.6875 275.925781 177.0625 274.5 C 177.585938 272.476562 178.710938 269.398438 180.285156 267.449219 C 181.859375 265.5 186.4375 262.800781 186.359375 262.726562 C 186.285156 262.648438 178.710938 268.351562 178.5625 268.199219 C 178.410156 267.976562 191.160156 256.875 191.3125 257.023438 C 191.460938 257.175781 180.660156 270.75 178.710938 269.925781 C 176.910156 269.175781 176.6875 256.050781 178.859375 254.851562 C 181.035156 253.648438 192.210938 262.574219 191.984375 263.175781 C 191.835938 263.625 187.035156 262.5 184.9375 261.375 C 182.835938 260.25 180.8125 258.523438 179.460938 256.574219 C 178.109375 254.625 177.136719 252.074219 176.835938 249.675781 C 176.535156 247.351562 177.136719 244.273438 177.734375 242.398438 C 178.1875 241.050781 178.5625 240.300781 179.460938 239.175781 C 180.660156 237.601562 182.835938 235.425781 184.9375 234.300781 C 187.035156 233.175781 189.4375 232.648438 192.0625 232.574219 C 195.359375 232.5 200.085938 233.625 203.160156 234.824219 C 205.636719 235.800781 207.660156 236.925781 209.3125 238.574219 C 210.960938 240.226562 212.3125 242.550781 212.984375 244.800781 C 213.660156 247.050781 213.585938 250.050781 213.359375 252 C 213.210938 253.351562 212.910156 254.25 212.234375 255.449219 C 211.335938 257.175781 209.6875 259.726562 207.8125 261.148438 C 206.011719 262.574219 203.160156 263.550781 201.210938 264 C 199.859375 264.300781 197.535156 264.226562 197.535156 264.226562 " clip-rule="nonzero"/></clipPath><clipPath id="011f505376"><path d="M 176.574219 231.449219 L 181.824219 231.449219 L 181.824219 300.449219 L 176.574219 300.449219 Z M 176.574219 231.449219 " clip-rule="nonzero"/></clipPath><clipPath id="7c051989f1"><path d="M 184.417969 241.191406 L 186 241.191406 L 186 242.726562 L 184.417969 242.726562 Z M 184.417969 241.191406 " clip-rule="nonzero"/></clipPath><clipPath id="e80f8d60d8"><path d="M 186 241.726562 C 185.324219 242.699219 184.726562 242.550781 184.574219 242.324219 C 184.425781 242.101562 184.574219 241.5 184.800781 241.351562 C 185.023438 241.199219 185.773438 241.425781 185.773438 241.425781 " clip-rule="nonzero"/></clipPath><clipPath id="3018ab6541"><path d="M 180.484375 229.792969 L 185.207031 229.792969 L 185.207031 231.980469 L 180.484375 231.980469 Z M 180.484375 229.792969 " clip-rule="nonzero"/></clipPath><clipPath id="38fe458afc"><path d="M 183.148438 231.675781 C 180.75 231.300781 180.523438 230.851562 180.675781 230.625 C 180.898438 230.175781 183.601562 229.949219 184.351562 230.101562 C 184.726562 230.175781 185.023438 230.398438 185.101562 230.625 C 185.175781 230.851562 184.726562 231.601562 184.5 231.601562 C 184.273438 231.601562 183.523438 230.925781 183.601562 230.699219 C 183.675781 230.476562 184.5 230.101562 184.726562 230.175781 C 184.949219 230.25 185.175781 230.851562 185.101562 231.074219 C 185.023438 231.300781 184.726562 231.523438 184.351562 231.601562 C 183.675781 231.824219 181.5 231.976562 181.050781 231.523438 C 180.75 231.226562 180.75 230.398438 180.976562 230.175781 C 181.351562 229.800781 183.449219 230.023438 183.898438 230.398438 C 184.125 230.625 184.273438 231.148438 184.125 231.375 C 183.976562 231.601562 183.148438 231.675781 183.148438 231.675781 " clip-rule="nonzero"/></clipPath><clipPath id="d1bf1b8a60"><path d="M 180.660156 229.472656 L 184.960938 229.472656 L 184.960938 231.976562 L 180.660156 231.976562 Z M 180.660156 229.472656 " clip-rule="nonzero"/></clipPath><clipPath id="1c340d1f00"><path d="M 184.199219 231 C 181.199219 231.976562 180.75 231.601562 180.75 231.300781 C 180.75 231.074219 181.050781 230.550781 181.273438 230.550781 C 181.5 230.550781 182.175781 231.601562 182.101562 231.75 C 182.023438 231.898438 180.75 231.675781 180.75 231.449219 C 180.675781 231.074219 183.226562 229.5 183.976562 229.5 C 184.425781 229.5 184.949219 229.949219 184.949219 230.175781 C 184.949219 230.398438 184.199219 231 184.199219 231 " clip-rule="nonzero"/></clipPath><clipPath id="7619e2d9fe"><path d="M 176.539062 229.488281 L 185.980469 229.488281 L 185.980469 232.894531 L 176.539062 232.894531 Z M 176.539062 229.488281 " clip-rule="nonzero"/></clipPath><clipPath id="c1da955d42"><path d="M 182.699219 231.523438 C 180.75 230.699219 177.898438 232.5 177.148438 232.199219 C 176.773438 232.050781 176.550781 231.601562 176.550781 231.375 C 176.550781 231.148438 176.773438 230.851562 177.148438 230.699219 C 178.273438 230.175781 183.898438 230.324219 185.101562 230.699219 C 185.550781 230.851562 185.773438 231 185.851562 231.226562 C 185.925781 231.449219 185.476562 232.125 185.25 232.199219 C 185.023438 232.273438 184.351562 231.824219 184.351562 231.601562 C 184.351562 231.375 185.023438 230.699219 185.25 230.699219 C 185.476562 230.699219 185.925781 231.449219 185.851562 231.675781 C 185.773438 231.898438 185.550781 232.050781 185.101562 232.199219 C 183.824219 232.574219 177.601562 232.875 176.851562 232.050781 C 176.550781 231.75 176.625 231.148438 176.925781 230.773438 C 177.523438 230.101562 180.824219 229.5 182.023438 229.648438 C 182.773438 229.726562 183.601562 230.175781 183.675781 230.550781 C 183.75 230.851562 182.699219 231.523438 182.699219 231.523438 " clip-rule="nonzero"/></clipPath><clipPath id="256864c46e"><path d="M 181.714844 229.074219 L 193.746094 229.074219 L 193.746094 239.25 L 181.714844 239.25 Z M 181.714844 229.074219 " clip-rule="nonzero"/></clipPath><clipPath id="0d944bd85d"><path d="M 183.898438 231.601562 C 181.949219 231.300781 181.800781 230.625 181.949219 230.398438 C 182.25 230.023438 184.125 229.875 184.425781 230.175781 C 184.648438 230.398438 184.5 231.375 184.199219 231.601562 C 183.898438 231.824219 182.773438 231.523438 182.476562 231.226562 C 182.25 231 182.023438 230.398438 182.25 230.101562 C 182.625 229.648438 185.324219 229.199219 185.773438 229.574219 C 186.074219 229.800781 186.074219 230.625 185.773438 230.925781 C 185.398438 231.300781 183.074219 230.699219 183 231 C 182.851562 231.449219 187.5 233.324219 189.375 234.601562 C 190.949219 235.648438 193.050781 237 193.5 237.898438 C 193.726562 238.351562 193.726562 238.875 193.574219 239.023438 C 193.425781 239.175781 192.675781 239.175781 192.523438 239.023438 C 192.375 238.800781 192.824219 237.75 192.976562 237.75 C 193.199219 237.75 193.726562 238.726562 193.648438 238.949219 C 193.574219 239.175781 193.199219 239.25 192.75 239.175781 C 191.101562 238.875 183.226562 233.550781 182.175781 231.75 C 181.800781 231.074219 181.726562 230.398438 182.023438 230.023438 C 182.476562 229.425781 185.398438 229.125 185.773438 229.574219 C 186 229.800781 185.851562 230.699219 185.550781 231 C 185.101562 231.449219 183.148438 231.601562 182.625 231.300781 C 182.324219 231.074219 182.101562 230.324219 182.25 230.101562 C 182.476562 229.800781 184.125 229.875 184.425781 230.175781 C 184.648438 230.476562 184.5 231.375 184.199219 231.601562 C 183.824219 231.898438 182.550781 231.824219 182.175781 231.523438 C 181.949219 231.300781 181.800781 230.625 181.949219 230.398438 C 182.175781 230.023438 184.050781 229.875 184.273438 230.175781 C 184.5 230.398438 183.898438 231.601562 183.898438 231.601562 " clip-rule="nonzero"/></clipPath><clipPath id="91b5360ce2"><path d="M 176.839844 229.71875 L 183.710938 229.71875 L 183.710938 233 L 176.839844 233 Z M 176.839844 229.71875 " clip-rule="nonzero"/></clipPath><clipPath id="f2e766371f"><path d="M 183 231.898438 C 180.375 230.925781 178.199219 233.101562 177.601562 232.800781 C 177.226562 232.648438 177.074219 231.523438 177.226562 231.375 C 177.375 231.226562 178.125 231.449219 178.273438 231.675781 C 178.425781 231.898438 178.125 232.648438 177.898438 232.726562 C 177.675781 232.800781 176.851562 232.351562 176.851562 232.050781 C 176.925781 231.523438 180.75 229.949219 181.726562 229.800781 C 182.101562 229.726562 182.398438 229.800781 182.550781 229.949219 C 182.773438 230.175781 182.699219 231.300781 182.699219 231.300781 C 182.699219 231.300781 182.476562 230.476562 182.625 230.398438 C 182.773438 230.25 183.523438 230.476562 183.601562 230.699219 C 183.675781 230.925781 183 231.898438 183 231.898438 " clip-rule="nonzero"/></clipPath></defs><g clip-path="url(#2477c743be)"><path fill="#7ed957" d="M 321.378906 166.484375 C 321.378906 240.3125 261.3125 300.378906 187.484375 300.378906 C 184.867188 300.378906 182.265625 300.289062 179.679688 300.144531 L 179.679688 288.21875 C 182.265625 288.386719 184.863281 288.476562 187.484375 288.476562 C 254.753906 288.476562 309.476562 233.753906 309.476562 166.484375 C 309.476562 99.21875 254.753906 44.492188 187.484375 44.492188 C 184.863281 44.492188 182.265625 44.605469 179.679688 44.765625 C 116.039062 48.804688 65.492188 101.84375 65.492188 166.480469 C 65.492188 205.363281 83.804688 240.027344 112.226562 262.382812 L 112.226562 166.804688 C 112.226562 145.292969 119.273438 127.785156 133.785156 113.277344 C 148.289062 98.773438 165.792969 91.722656 187.308594 91.722656 C 208.839844 91.722656 226.417969 98.792969 241.054688 113.324219 C 255.652344 127.828125 262.746094 145.320312 262.746094 166.804688 C 262.746094 188.316406 255.636719 205.882812 241.007812 220.507812 C 226.378906 235.136719 208.8125 242.246094 187.308594 242.246094 C 184.066406 242.246094 183.175781 241.335938 182.683594 240.828125 C 182.179688 240.3125 181.121094 239.226562 181.121094 235.699219 C 181.121094 232.3125 182.066406 231.367188 182.523438 230.917969 C 182.976562 230.464844 183.925781 229.515625 187.308594 229.515625 C 204.515625 229.515625 219.429688 223.328125 231.632812 211.125 C 243.832031 198.921875 250.023438 184.003906 250.023438 166.804688 C 250.023438 149.796875 243.632812 134.503906 231.535156 122.566406 C 219.335938 110.546875 204.460938 104.453125 187.308594 104.453125 C 170.097656 104.453125 155.25 110.578125 143.164062 122.65625 C 131.082031 134.734375 124.957031 149.589844 124.957031 166.804688 L 124.957031 284.824219 C 120.5625 282.492188 116.3125 279.941406 112.226562 277.152344 C 76.863281 253.035156 53.59375 212.425781 53.59375 166.484375 C 53.59375 95.277344 109.476562 36.898438 179.679688 32.839844 C 182.265625 32.6875 184.863281 32.59375 187.484375 32.59375 C 261.3125 32.59375 321.378906 92.660156 321.378906 166.484375 Z M 321.378906 166.484375 " fill-opacity="1" fill-rule="nonzero"/></g><g clip-path="url(#fa86ab1d98)"><g clip-path="url(#b1a13857eb)"><path fill="#7ed957" d="M 91.484375 45.824219 L 169.035156 45.824219 L 169.035156 113.699219 L 91.484375 113.699219 Z M 91.484375 45.824219 " fill-opacity="1" fill-rule="nonzero"/></g></g><g clip-path="url(#484c62cb70)"><g clip-path="url(#e0e2e383cc)"><path fill="#7ed957" d="M 104.835938 75.148438 L 140.535156 75.148438 L 140.535156 110.925781 L 104.835938 110.925781 Z M 104.835938 75.148438 " fill-opacity="1" fill-rule="nonzero"/></g></g><g clip-path="url(#a306ae2e86)"><g clip-path="url(#9e7cd46cdf)"><path fill="#7ed957" d="M 80.011719 41.324219 L 190.5625 41.324219 L 190.5625 142.351562 L 80.011719 142.351562 Z M 80.011719 41.324219 " fill-opacity="1" fill-rule="nonzero"/></g></g><g clip-path="url(#7cafe7ddf3)"><g clip-path="url(#ef7419c9c1)"><path fill="#7ed957" d="M 60.660156 39.824219 L 302.984375 39.824219 L 302.984375 267.675781 L 60.660156 267.675781 Z M 60.660156 39.824219 " fill-opacity="1" fill-rule="nonzero"/></g></g><g clip-path="url(#c7bb800918)"><g clip-path="url(#9302377ce3)"><path fill="#7ed957" d="M 155.011719 64.800781 L 279.886719 64.800781 L 279.886719 136.125 L 155.011719 136.125 Z M 155.011719 64.800781 " fill-opacity="1" fill-rule="nonzero"/></g></g><g clip-path="url(#7c1a391067)"><g clip-path="url(#430febb2b8)"><path fill="#7ed957" d="M 197.160156 46.351562 L 314.910156 46.351562 L 314.910156 212.550781 L 197.160156 212.550781 Z M 197.160156 46.351562 " fill-opacity="1" fill-rule="nonzero"/></g></g><g clip-path="url(#5402cffc16)"><g clip-path="url(#f940e3e181)"><path fill="#7ed957" d="M 218.011719 172.050781 L 283.636719 172.050781 L 283.636719 283.726562 L 218.011719 283.726562 Z M 218.011719 172.050781 " fill-opacity="1" fill-rule="nonzero"/></g></g><g clip-path="url(#a2a658dcdb)"><g clip-path="url(#f182bc6e53)"><path fill="#7ed957" d="M 180.585938 231.449219 L 216.285156 231.449219 L 216.285156 267.148438 L 180.585938 267.148438 Z M 180.585938 231.449219 " fill-opacity="1" fill-rule="nonzero"/></g></g><g clip-path="url(#9068c98029)"><g clip-path="url(#d807c2bed7)"><path fill="#7ed957" d="M 173.761719 181.199219 L 309.734375 181.199219 L 309.734375 296.625 L 173.761719 296.625 Z M 173.761719 181.199219 " fill-opacity="1" fill-rule="nonzero"/></g></g><g clip-path="url(#011f505376)"><path fill="#7ed957" d="M 181.804688 231.449219 L 181.804688 300.402344 L 176.5 300.402344 L 176.5 231.449219 Z M 181.804688 231.449219 " fill-opacity="1" fill-rule="nonzero"/></g><g clip-path="url(#7c051989f1)"><g clip-path="url(#e80f8d60d8)"><path fill="#7ed957" d="M 181.574219 238.351562 L 189 238.351562 L 189 245.625 L 181.574219 245.625 Z M 181.574219 238.351562 " fill-opacity="1" fill-rule="nonzero"/></g></g><g clip-path="url(#3018ab6541)"><g clip-path="url(#38fe458afc)"><path fill="#7ed957" d="M 177.675781 227.101562 L 188.101562 227.101562 L 188.101562 234.675781 L 177.675781 234.675781 Z M 177.675781 227.101562 " fill-opacity="1" fill-rule="nonzero"/></g></g><g clip-path="url(#d1bf1b8a60)"><g clip-path="url(#1c340d1f00)"><path fill="#7ed957" d="M 177.75 226.5 L 187.949219 226.5 L 187.949219 235.050781 L 177.75 235.050781 Z M 177.75 226.5 " fill-opacity="1" fill-rule="nonzero"/></g></g><g clip-path="url(#7619e2d9fe)"><g clip-path="url(#c1da955d42)"><path fill="#7ed957" d="M 173.550781 226.648438 L 188.851562 226.648438 L 188.851562 235.199219 L 173.550781 235.199219 Z M 173.550781 226.648438 " fill-opacity="1" fill-rule="nonzero"/></g></g><g clip-path="url(#256864c46e)"><g clip-path="url(#0d944bd85d)"><path fill="#7ed957" d="M 178.949219 226.574219 L 196.648438 226.574219 L 196.648438 242.175781 L 178.949219 242.175781 Z M 178.949219 226.574219 " fill-opacity="1" fill-rule="nonzero"/></g></g><g clip-path="url(#91b5360ce2)"><g clip-path="url(#f2e766371f)"><path fill="#7ed957" d="M 173.851562 226.800781 L 186.601562 226.800781 L 186.601562 235.800781 L 173.851562 235.800781 Z M 173.851562 226.800781 " fill-opacity="1" fill-rule="nonzero"/></g></g></svg>